{
  "source": "C:\\Users\\Peter\\Desktop\\stuff\\MIUN\\quantitative_research\\video_compression\\videos\\UVG\\Jockey_1920x1080_120fps_420_8bit_YUV.y4m",
  "output": "C:\\Users\\Peter\\Desktop\\stuff\\MIUN\\quantitative_research\\video_compression\\compressed_videos\\UVG\\vp9\\1.5\\Jockey_1920x1080_120fps_420_8bit_YUV_vp9.webm",
  "codec": "vp9",
  "ok": "[yuv4mpegpipe @ 000002320cd752c0] Stream #0: not enough frames to estimate rate; consider increasing probesize\nInput #0, yuv4mpegpipe, from 'C:\\Users\\Peter\\Desktop\\stuff\\MIUN\\quantitative_research\\video_compression\\videos\\UVG\\Jockey_1920x1080_120fps_420_8bit_YUV.y4m':\n  Duration: 00:00:05.00, start: 0.000000, bitrate: 2985989 kb/s\n  Stream #0:0: Video: rawvideo (I420 / 0x30323449), yuv420p(progressive), 1920x1080, 120 fps, 120 tbr, 120 tbn\n[out#0/webm @ 000002320cd79b80] Codec AVOption b:a (set bitrate (in bits/s)) has not been used for any stream. The most likely reason is either wrong type (e.g. a video option with no video streams) or that it is a private option of some decoder which was not actually used for any stream.\nStream mapping:\n  Stream #0:0 -> #0:0 (rawvideo (native) -> vp9 (libvpx-vp9))\nPress [q] to stop, [?] for help\n[libvpx-vp9 @ 000002320cd7cec0] v1.15.2-100-g40561f514\nOutput #0, webm, to 'C:\\Users\\Peter\\Desktop\\stuff\\MIUN\\quantitative_research\\video_compression\\compressed_videos\\UVG\\vp9\\1.5\\Jockey_1920x1080_120fps_420_8bit_YUV_vp9.webm':\n  Metadata:\n    encoder         : Lavf62.3.100\n  Stream #0:0: Video: vp9, yuv420p(tv, progressive), 1920x1080, q=2-31, 1500 kb/s, 120 fps, 1k tbn\n    Metadata:\n      encoder         : Lavc62.11.100 libvpx-vp9\n    Side data:\n      cpb: bitrate max/min/avg: 0/0/0 buffer size: 1500000 vbv_delay: N/A\nframe=    4 fps=0.0 q=63.0 size=       0KiB time=00:00:00.03 bitrate= 115.4kbits/s speed=0.0646x elapsed=0:00:00.51    \nframe=   14 fps= 14 q=56.0 size=       0KiB time=00:00:00.11 bitrate=  33.0kbits/s speed=0.113x elapsed=0:00:01.03    \nframe=   21 fps= 13 q=55.0 size=       0KiB time=00:00:00.17 bitrate=  22.0kbits/s speed=0.112x elapsed=0:00:01.55    \nframe=   30 fps= 14 q=57.0 size=       0KiB time=00:00:00.25 bitrate=  15.4kbits/s speed=0.12x elapsed=0:00:02.08    \nframe=   37 fps= 14 q=56.0 size=       0KiB time=00:00:00.30 bitrate=  12.5kbits/s speed=0.118x elapsed=0:00:02.61    \nframe=   44 fps= 14 q=57.0 size=       0KiB time=00:00:00.36 bitrate=  10.5kbits/s speed=0.117x elapsed=0:00:03.13    \nframe=   51 fps= 14 q=57.0 size=       0KiB time=00:00:00.42 bitrate=   9.1kbits/s speed=0.117x elapsed=0:00:03.63    \nframe=   58 fps= 14 q=57.0 size=       0KiB time=00:00:00.48 bitrate=   8.0kbits/s speed=0.116x elapsed=0:00:04.14    \nframe=   66 fps= 14 q=57.0 size=       0KiB time=00:00:00.55 bitrate=   7.0kbits/s speed=0.118x elapsed=0:00:04.67    \nframe=   73 fps= 14 q=57.0 size=       0KiB time=00:00:00.60 bitrate=   6.3kbits/s speed=0.117x elapsed=0:00:05.20    \nframe=   80 fps= 14 q=56.0 size=       0KiB time=00:00:00.66 bitrate=   5.8kbits/s speed=0.116x elapsed=0:00:05.73    \nframe=   87 fps= 14 q=57.0 size=       0KiB time=00:00:00.72 bitrate=   5.3kbits/s speed=0.116x elapsed=0:00:06.27    \nframe=   93 fps= 14 q=58.0 size=       0KiB time=00:00:00.77 bitrate=   5.0kbits/s speed=0.114x elapsed=0:00:06.81    \nframe=   98 fps= 13 q=58.0 size=       0KiB time=00:00:00.81 bitrate=   4.7kbits/s speed=0.111x elapsed=0:00:07.37    \nframe=  102 fps= 13 q=45.0 size=       0KiB time=00:00:00.85 bitrate=   4.5kbits/s speed=0.108x elapsed=0:00:07.88    \nframe=  108 fps= 13 q=59.0 size=       0KiB time=00:00:00.90 bitrate=   4.3kbits/s speed=0.107x elapsed=0:00:08.43    \nframe=  113 fps= 13 q=59.0 size=       0KiB time=00:00:00.94 bitrate=   4.1kbits/s speed=0.105x elapsed=0:00:08.97    \nframe=  118 fps= 12 q=59.0 size=       0KiB time=00:00:00.98 bitrate=   3.9kbits/s speed=0.103x elapsed=0:00:09.55    \nframe=  123 fps= 12 q=47.0 size=       0KiB time=00:00:01.01 bitrate=   3.8kbits/s speed=0.101x elapsed=0:00:10.08    \nframe=  128 fps= 12 q=60.0 size=       0KiB time=00:00:01.06 bitrate=   3.6kbits/s speed=0.0999x elapsed=0:00:10.68    \nframe=  134 fps= 12 q=58.0 size=     184KiB time=00:00:01.11 bitrate=1348.5kbits/s speed=0.0993x elapsed=0:00:11.24    \nframe=  140 fps= 12 q=59.0 size=     184KiB time=00:00:01.16 bitrate=1290.7kbits/s speed=0.0992x elapsed=0:00:11.76    \nframe=  145 fps= 12 q=59.0 size=     184KiB time=00:00:01.20 bitrate=1246.2kbits/s speed=0.0984x elapsed=0:00:12.27    \nframe=  150 fps= 12 q=47.0 size=     184KiB time=00:00:01.25 bitrate=1204.6kbits/s speed=0.0976x elapsed=0:00:12.80    \nframe=  155 fps= 12 q=60.0 size=     184KiB time=00:00:01.29 bitrate=1165.8kbits/s speed=0.0967x elapsed=0:00:13.35    \nframe=  159 fps= 11 q=60.0 size=     184KiB time=00:00:01.32 bitrate=1136.4kbits/s speed=0.0954x elapsed=0:00:13.88    \nframe=  164 fps= 11 q=47.0 size=     184KiB time=00:00:01.36 bitrate=1101.8kbits/s speed=0.0949x elapsed=0:00:14.40    \nframe=  170 fps= 11 q=61.0 size=     184KiB time=00:00:01.41 bitrate=1062.9kbits/s speed=0.0945x elapsed=0:00:14.98    \nframe=  176 fps= 11 q=61.0 size=     184KiB time=00:00:01.46 bitrate=1026.7kbits/s speed=0.0945x elapsed=0:00:15.51    \nframe=  183 fps= 11 q=60.0 size=     184KiB time=00:00:01.52 bitrate= 987.4kbits/s speed=0.0951x elapsed=0:00:16.03    \nframe=  188 fps= 11 q=60.0 size=     184KiB time=00:00:01.56 bitrate= 961.1kbits/s speed=0.0945x elapsed=0:00:16.57    \nframe=  194 fps= 11 q=60.0 size=     184KiB time=00:00:01.61 bitrate= 931.4kbits/s speed=0.0946x elapsed=0:00:17.09    \nframe=  199 fps= 11 q=44.0 size=     184KiB time=00:00:01.65 bitrate= 908.0kbits/s speed=0.094x elapsed=0:00:17.64    \nframe=  206 fps= 11 q=60.0 size=     184KiB time=00:00:01.71 bitrate= 877.2kbits/s speed=0.0945x elapsed=0:00:18.16    \nframe=  212 fps= 11 q=60.0 size=     184KiB time=00:00:01.76 bitrate= 852.3kbits/s speed=0.0945x elapsed=0:00:18.68    \nframe=  219 fps= 11 q=61.0 size=     184KiB time=00:00:01.82 bitrate= 825.1kbits/s speed=0.095x elapsed=0:00:19.20    \nframe=  225 fps= 11 q=60.0 size=     184KiB time=00:00:01.87 bitrate= 803.1kbits/s speed=0.095x elapsed=0:00:19.74    \nframe=  231 fps= 11 q=61.0 size=     184KiB time=00:00:01.92 bitrate= 782.2kbits/s speed=0.095x elapsed=0:00:20.26    \nframe=  237 fps= 11 q=60.0 size=     184KiB time=00:00:01.97 bitrate= 762.4kbits/s speed=0.095x elapsed=0:00:20.79    \nframe=  241 fps= 11 q=60.0 size=     184KiB time=00:00:02.00 bitrate= 749.8kbits/s speed=0.0942x elapsed=0:00:21.32    \nframe=  246 fps= 11 q=61.0 size=     184KiB time=00:00:02.05 bitrate= 734.5kbits/s speed=0.0938x elapsed=0:00:21.85    \nframe=  253 fps= 11 q=60.0 size=     184KiB time=00:00:02.10 bitrate= 714.2kbits/s speed=0.0942x elapsed=0:00:22.37    \nframe=  260 fps= 11 q=61.0 size=     256KiB time=00:00:02.16 bitrate= 967.9kbits/s speed=0.0944x elapsed=0:00:22.94    \nframe=  268 fps= 11 q=60.0 size=     256KiB time=00:00:02.23 bitrate= 939.0kbits/s speed=0.0952x elapsed=0:00:23.45    \nframe=  275 fps= 11 q=60.0 size=     256KiB time=00:00:02.29 bitrate= 915.1kbits/s speed=0.0955x elapsed=0:00:23.99    \nframe=  283 fps= 12 q=61.0 size=     256KiB time=00:00:02.35 bitrate= 889.3kbits/s speed=0.0961x elapsed=0:00:24.53    \nframe=  290 fps= 12 q=63.0 size=     256KiB time=00:00:02.41 bitrate= 867.8kbits/s speed=0.0964x elapsed=0:00:25.07    \nframe=  297 fps= 12 q=63.0 size=     256KiB time=00:00:02.47 bitrate= 847.3kbits/s speed=0.0966x elapsed=0:00:25.61    \nframe=  304 fps= 12 q=63.0 size=     256KiB time=00:00:02.53 bitrate= 827.8kbits/s speed=0.097x elapsed=0:00:26.12    \nframe=  311 fps= 12 q=63.0 size=     256KiB time=00:00:02.59 bitrate= 809.2kbits/s speed=0.0972x elapsed=0:00:26.66    \nframe=  318 fps= 12 q=63.0 size=     256KiB time=00:00:02.64 bitrate= 793.9kbits/s speed=0.0971x elapsed=0:00:27.20    \nframe=  325 fps= 12 q=63.0 size=     256KiB time=00:00:02.70 bitrate= 774.3kbits/s speed=0.0977x elapsed=0:00:27.71    \nframe=  331 fps= 12 q=63.0 size=     256KiB time=00:00:02.75 bitrate= 760.3kbits/s speed=0.0977x elapsed=0:00:28.23    \nframe=  339 fps= 12 q=62.0 size=     256KiB time=00:00:02.82 bitrate= 742.4kbits/s speed=0.0983x elapsed=0:00:28.74    \nframe=  347 fps= 12 q=62.0 size=     256KiB time=00:00:02.89 bitrate= 725.2kbits/s speed=0.0987x elapsed=0:00:29.28    \nframe=  354 fps= 12 q=62.0 size=     256KiB time=00:00:02.95 bitrate= 710.9kbits/s speed=0.0989x elapsed=0:00:29.83    \nframe=  362 fps= 12 q=51.0 size=     256KiB time=00:00:03.01 bitrate= 695.2kbits/s speed=0.0994x elapsed=0:00:30.33    \nframe=  371 fps= 12 q=60.0 size=     256KiB time=00:00:03.09 bitrate= 678.3kbits/s speed= 0.1x elapsed=0:00:30.85    \nframe=  379 fps= 12 q=57.0 size=     256KiB time=00:00:03.15 bitrate= 664.0kbits/s speed=0.101x elapsed=0:00:31.38    \nframe=  387 fps= 12 q=59.0 size=     512KiB time=00:00:03.22 bitrate=1300.6kbits/s speed=0.101x elapsed=0:00:31.88    \nframe=  396 fps= 12 q=59.0 size=     512KiB time=00:00:03.30 bitrate=1271.0kbits/s speed=0.102x elapsed=0:00:32.39    \nframe=  405 fps= 12 q=57.0 size=     512KiB time=00:00:03.37 bitrate=1242.8kbits/s speed=0.102x elapsed=0:00:32.93    \nframe=  413 fps= 12 q=44.0 size=     512KiB time=00:00:03.44 bitrate=1218.7kbits/s speed=0.103x elapsed=0:00:33.47    \nframe=  422 fps= 12 q=53.0 size=     512KiB time=00:00:03.51 bitrate=1192.7kbits/s speed=0.103x elapsed=0:00:34.00    \nframe=  431 fps= 12 q=54.0 size=     512KiB time=00:00:03.59 bitrate=1167.8kbits/s speed=0.104x elapsed=0:00:34.51    \nframe=  439 fps= 13 q=55.0 size=     512KiB time=00:00:03.65 bitrate=1146.5kbits/s speed=0.104x elapsed=0:00:35.03    \nframe=  447 fps= 13 q=57.0 size=     512KiB time=00:00:03.72 bitrate=1126.0kbits/s speed=0.105x elapsed=0:00:35.55    \nframe=  455 fps= 13 q=43.0 size=     512KiB time=00:00:03.79 bitrate=1106.2kbits/s speed=0.105x elapsed=0:00:36.08    \nframe=  463 fps= 13 q=56.0 size=     512KiB time=00:00:03.85 bitrate=1087.1kbits/s speed=0.105x elapsed=0:00:36.58    \nframe=  472 fps= 13 q=53.0 size=     512KiB time=00:00:03.93 bitrate=1066.3kbits/s speed=0.106x elapsed=0:00:37.10    \nframe=  481 fps= 13 q=51.0 size=     512KiB time=00:00:04.00 bitrate=1046.4kbits/s speed=0.107x elapsed=0:00:37.62    \nframe=  489 fps= 13 q=52.0 size=     512KiB time=00:00:04.07 bitrate=1029.3kbits/s speed=0.107x elapsed=0:00:38.14    \nframe=  496 fps= 13 q=53.0 size=     512KiB time=00:00:04.13 bitrate=1014.8kbits/s speed=0.107x elapsed=0:00:38.67    \nframe=  504 fps= 13 q=41.0 size=     512KiB time=00:00:04.20 bitrate= 998.6kbits/s speed=0.107x elapsed=0:00:39.23    \nframe=  512 fps= 13 q=55.0 size=     512KiB time=00:00:04.26 bitrate= 983.0kbits/s speed=0.107x elapsed=0:00:39.74    \nframe=  522 fps= 13 q=55.0 size=     768KiB time=00:00:04.35 bitrate=1446.3kbits/s speed=0.108x elapsed=0:00:40.26    \nframe=  529 fps= 13 q=55.0 size=     768KiB time=00:00:04.40 bitrate=1427.2kbits/s speed=0.108x elapsed=0:00:40.78    \nframe=  538 fps= 13 q=55.0 size=     768KiB time=00:00:04.48 bitrate=1403.3kbits/s speed=0.109x elapsed=0:00:41.30    \nframe=  546 fps= 13 q=55.0 size=     768KiB time=00:00:04.55 bitrate=1382.7kbits/s speed=0.109x elapsed=0:00:41.83    \nframe=  553 fps= 13 q=56.0 size=     768KiB time=00:00:04.60 bitrate=1365.2kbits/s speed=0.109x elapsed=0:00:42.34    \nframe=  560 fps= 13 q=56.0 size=     768KiB time=00:00:04.66 bitrate=1348.2kbits/s speed=0.109x elapsed=0:00:42.85    \nframe=  568 fps= 13 q=57.0 size=     768KiB time=00:00:04.73 bitrate=1329.2kbits/s speed=0.109x elapsed=0:00:43.36    \nframe=  575 fps= 13 q=57.0 size=     768KiB time=00:00:04.79 bitrate=1313.0kbits/s speed=0.109x elapsed=0:00:43.89    \nframe=  576 fps= 13 q=43.0 size=     768KiB time=00:00:04.80 bitrate=1310.7kbits/s speed=0.108x elapsed=0:00:44.43    \nframe=  576 fps= 13 q=43.0 size=     768KiB time=00:00:04.80 bitrate=1310.7kbits/s speed=0.107x elapsed=0:00:44.95    \nframe=  576 fps= 13 q=43.0 size=     768KiB time=00:00:04.80 bitrate=1310.7kbits/s speed=0.106x elapsed=0:00:45.46    \n[out#0/webm @ 000002320cd79b80] video:935KiB audio:0KiB subtitle:0KiB other streams:0KiB global headers:0KiB muxing overhead: 0.504560%\nframe=  600 fps= 13 q=59.0 Lsize=     940KiB time=00:00:05.00 bitrate=1540.3kbits/s speed=0.11x elapsed=0:00:45.58    \n",
  "seconds": 45.75352764129639,
  "probe_out": {}
}